<svg width="123" height="48" viewBox="0 0 123 48" fill="none" xmlns="http://www.w3.org/2000/svg">
<g clip-path="url(#clip0_0_3672)">
<rect x="1" y="1" width="121" height="46" rx="23" fill="white" stroke="white" stroke-width="2"/>
<path d="M36.356 30.162C35.108 30.162 34.154 29.928 33.494 29.46C32.834 28.98 32.45 28.314 32.342 27.462L34.196 27.012C34.268 27.468 34.478 27.822 34.826 28.074C35.174 28.314 35.672 28.434 36.32 28.434C36.848 28.434 37.244 28.35 37.508 28.182C37.784 28.014 37.922 27.786 37.922 27.498C37.922 27.21 37.772 26.988 37.472 26.832C37.184 26.676 36.734 26.538 36.122 26.418C35.438 26.286 34.85 26.118 34.358 25.914C33.878 25.71 33.506 25.434 33.242 25.086C32.99 24.726 32.864 24.258 32.864 23.682C32.864 23.13 33.02 22.638 33.332 22.206C33.644 21.762 34.07 21.414 34.61 21.162C35.162 20.898 35.792 20.766 36.5 20.766C37.448 20.766 38.222 20.988 38.822 21.432C39.434 21.876 39.8 22.446 39.92 23.142L38.102 23.628C38.018 23.28 37.838 23.01 37.562 22.818C37.286 22.614 36.914 22.512 36.446 22.512C35.978 22.512 35.618 22.608 35.366 22.8C35.126 22.992 35.006 23.232 35.006 23.52C35.006 23.808 35.144 24.036 35.42 24.204C35.708 24.36 36.194 24.51 36.878 24.654C37.514 24.786 38.066 24.954 38.534 25.158C39.014 25.35 39.392 25.62 39.668 25.968C39.944 26.304 40.082 26.76 40.082 27.336C40.082 27.9 39.92 28.398 39.596 28.83C39.284 29.25 38.846 29.58 38.282 29.82C37.718 30.048 37.076 30.162 36.356 30.162ZM44.5582 30.162C43.5502 30.162 42.7882 29.82 42.2722 29.136C41.7682 28.452 41.5222 27.504 41.5342 26.292L41.5702 20.91H43.7662L43.7302 26.094C43.7182 26.718 43.8262 27.21 44.0542 27.57C44.2822 27.93 44.6422 28.11 45.1342 28.11C45.5182 28.11 45.8722 27.996 46.1962 27.768C46.5322 27.54 46.8202 27.156 47.0602 26.616C47.3002 26.064 47.4862 25.326 47.6182 24.402C47.7622 23.466 47.8342 22.302 47.8342 20.91H49.9582V30H47.7442L47.8702 27.93C47.5102 28.662 47.0422 29.22 46.4662 29.604C45.9022 29.976 45.2662 30.162 44.5582 30.162ZM52.295 30V16.68H54.491V20.91L54.419 22.566C54.743 21.99 55.163 21.546 55.679 21.234C56.207 20.922 56.813 20.766 57.497 20.766C58.301 20.766 58.979 20.952 59.531 21.324C60.083 21.696 60.503 22.206 60.791 22.854C61.079 23.502 61.223 24.24 61.223 25.068C61.223 26.076 61.025 26.964 60.629 27.732C60.233 28.5 59.687 29.1 58.991 29.532C58.307 29.952 57.533 30.162 56.669 30.162C56.081 30.162 55.565 30.042 55.121 29.802C54.677 29.55 54.341 29.22 54.113 28.812L53.897 30H52.295ZM56.489 28.236C57.245 28.236 57.845 27.948 58.289 27.372C58.733 26.796 58.955 26.052 58.955 25.14C58.955 24.372 58.787 23.778 58.451 23.358C58.115 22.926 57.653 22.71 57.065 22.71C56.573 22.71 56.135 22.848 55.751 23.124C55.367 23.388 55.061 23.766 54.833 24.258C54.605 24.738 54.491 25.296 54.491 25.932C54.491 26.64 54.671 27.204 55.031 27.624C55.391 28.032 55.877 28.236 56.489 28.236ZM63.1231 30V20.91H65.3191L65.2111 23.142C65.5831 22.314 66.0631 21.714 66.6511 21.342C67.2511 20.958 67.8931 20.766 68.5771 20.766C69.2371 20.766 69.8191 20.946 70.3231 21.306C70.8271 21.666 71.1871 22.23 71.4031 22.998C71.7871 22.242 72.2911 21.684 72.9151 21.324C73.5511 20.952 74.2051 20.766 74.8771 20.766C75.8851 20.766 76.6471 21.12 77.1631 21.828C77.6911 22.524 77.9491 23.526 77.9371 24.834L77.9011 30H75.7051L75.7411 24.906C75.7411 24.246 75.6211 23.736 75.3811 23.376C75.1411 23.004 74.7691 22.818 74.2651 22.818C73.9171 22.818 73.5811 22.932 73.2571 23.16C72.9451 23.376 72.6631 23.754 72.4111 24.294C72.1711 24.834 71.9791 25.572 71.8351 26.508C71.6911 27.432 71.6131 28.596 71.6011 30H69.4231V24.906C69.4231 24.246 69.3091 23.736 69.0811 23.376C68.8531 23.004 68.4871 22.818 67.9831 22.818C67.6351 22.818 67.2991 22.932 66.9751 23.16C66.6631 23.376 66.3811 23.754 66.1291 24.294C65.8891 24.834 65.6911 25.572 65.5351 26.508C65.3911 27.432 65.3131 28.596 65.3011 30H63.1231ZM82.3523 20.91V30H80.1563V20.91H82.3523ZM81.2543 19.47C80.8223 19.47 80.4803 19.338 80.2283 19.074C79.9763 18.81 79.8503 18.492 79.8503 18.12C79.8503 17.748 79.9763 17.43 80.2283 17.166C80.4803 16.902 80.8223 16.77 81.2543 16.77C81.6863 16.77 82.0283 16.902 82.2803 17.166C82.5323 17.43 82.6583 17.748 82.6583 18.12C82.6583 18.492 82.5323 18.81 82.2803 19.074C82.0283 19.338 81.6863 19.47 81.2543 19.47ZM88.5435 30.162C87.4515 30.162 86.5995 29.862 85.9875 29.262C85.3875 28.662 85.0935 27.876 85.1055 26.904L85.1775 22.746H83.6295V20.91H85.2135L85.2315 19.038H87.4275L87.3915 20.91H90.3615V22.746H87.3735L87.3195 26.67C87.3075 27.162 87.4275 27.552 87.6795 27.84C87.9435 28.116 88.3335 28.254 88.8495 28.254C89.1255 28.254 89.3835 28.218 89.6235 28.146C89.8635 28.074 90.1155 27.942 90.3795 27.75L91.0275 29.442C90.7515 29.682 90.3975 29.862 89.9655 29.982C89.5335 30.102 89.0595 30.162 88.5435 30.162Z" fill="#004047"/>
</g>
<defs>
<clipPath id="clip0_0_3672">
<rect width="123" height="48" fill="white"/>
</clipPath>
</defs>
</svg>
